<mxfile host="app.diagrams.net" agent="Mozilla/5.0 (Windows NT 10.0; Win64; x64) AppleWebKit/537.36 (KHTML, like Gecko) Chrome/136.0.0.0 Safari/537.36 Edg/136.0.0.0" scale="1" border="0" version="27.0.5">
  <diagram name="第 1 页" id="rPb-chqL0vrrgZvvh9Yq">
    <mxGraphModel dx="915" dy="507" grid="1" gridSize="10" guides="1" tooltips="1" connect="1" arrows="1" fold="1" page="1" pageScale="1" pageWidth="827" pageHeight="1169" math="0" shadow="0">
      <root>
        <mxCell id="0" />
        <mxCell id="1" parent="0" />
        <mxCell id="tmr2yHB7oxTNzsD7l78u-307" value="&lt;font style=&quot;color: rgb(49, 67, 84);&quot;&gt;&lt;b style=&quot;&quot;&gt;&lt;i style=&quot;&quot;&gt;L&lt;sub style=&quot;&quot;&gt;S&lt;/sub&gt;&lt;/i&gt;&lt;/b&gt;&lt;/font&gt;" style="text;html=1;align=center;verticalAlign=middle;whiteSpace=wrap;rounded=0;" vertex="1" parent="1">
          <mxGeometry x="450" y="480" width="60" height="30" as="geometry" />
        </mxCell>
        <mxCell id="tmr2yHB7oxTNzsD7l78u-308" value="&lt;font style=&quot;color: rgb(49, 67, 84);&quot;&gt;&lt;b style=&quot;&quot;&gt;&lt;i style=&quot;&quot;&gt;L&lt;sub style=&quot;&quot;&gt;T&lt;/sub&gt;&lt;/i&gt;&lt;/b&gt;&lt;/font&gt;" style="text;html=1;align=center;verticalAlign=middle;whiteSpace=wrap;rounded=0;" vertex="1" parent="1">
          <mxGeometry x="311" y="480" width="60" height="30" as="geometry" />
        </mxCell>
        <mxCell id="tmr2yHB7oxTNzsD7l78u-247" style="edgeStyle=orthogonalEdgeStyle;rounded=0;orthogonalLoop=1;jettySize=auto;html=1;exitX=1;exitY=0.5;exitDx=0;exitDy=0;exitPerimeter=0;entryX=0;entryY=0.5;entryDx=0;entryDy=0;" edge="1" parent="1" source="tmr2yHB7oxTNzsD7l78u-244" target="tmr2yHB7oxTNzsD7l78u-246">
          <mxGeometry relative="1" as="geometry" />
        </mxCell>
        <mxCell id="tmr2yHB7oxTNzsD7l78u-253" style="edgeStyle=orthogonalEdgeStyle;rounded=0;orthogonalLoop=1;jettySize=auto;html=1;exitX=0.5;exitY=1;exitDx=0;exitDy=0;exitPerimeter=0;entryX=0.5;entryY=0;entryDx=0;entryDy=0;" edge="1" parent="1" source="tmr2yHB7oxTNzsD7l78u-244" target="tmr2yHB7oxTNzsD7l78u-250">
          <mxGeometry relative="1" as="geometry" />
        </mxCell>
        <mxCell id="tmr2yHB7oxTNzsD7l78u-292" style="edgeStyle=orthogonalEdgeStyle;rounded=0;orthogonalLoop=1;jettySize=auto;html=1;exitX=0.145;exitY=1;exitDx=0;exitDy=-4.35;exitPerimeter=0;entryX=0.75;entryY=0;entryDx=0;entryDy=0;fillColor=#a0522d;strokeColor=#6D1F00;" edge="1" parent="1" source="tmr2yHB7oxTNzsD7l78u-244" target="tmr2yHB7oxTNzsD7l78u-283">
          <mxGeometry relative="1" as="geometry" />
        </mxCell>
        <mxCell id="tmr2yHB7oxTNzsD7l78u-302" style="edgeStyle=orthogonalEdgeStyle;rounded=0;orthogonalLoop=1;jettySize=auto;html=1;exitX=0.5;exitY=1;exitDx=0;exitDy=0;exitPerimeter=0;entryX=1;entryY=0.5;entryDx=0;entryDy=0;" edge="1" parent="1" source="tmr2yHB7oxTNzsD7l78u-244" target="tmr2yHB7oxTNzsD7l78u-280">
          <mxGeometry relative="1" as="geometry">
            <Array as="points">
              <mxPoint x="495" y="300" />
              <mxPoint x="560" y="300" />
              <mxPoint x="560" y="540" />
            </Array>
          </mxGeometry>
        </mxCell>
        <mxCell id="tmr2yHB7oxTNzsD7l78u-244" value="Source Data" style="shape=cylinder3;whiteSpace=wrap;html=1;boundedLbl=1;backgroundOutline=1;size=15;fillColor=#60a917;fontColor=#ffffff;strokeColor=#2D7600;" vertex="1" parent="1">
          <mxGeometry x="450" y="90" width="90" height="90" as="geometry" />
        </mxCell>
        <mxCell id="tmr2yHB7oxTNzsD7l78u-264" style="edgeStyle=orthogonalEdgeStyle;rounded=0;orthogonalLoop=1;jettySize=auto;html=1;exitX=0.5;exitY=1;exitDx=0;exitDy=0;exitPerimeter=0;entryX=0.25;entryY=0;entryDx=0;entryDy=0;" edge="1" parent="1" source="tmr2yHB7oxTNzsD7l78u-245" target="tmr2yHB7oxTNzsD7l78u-250">
          <mxGeometry relative="1" as="geometry">
            <Array as="points">
              <mxPoint x="355" y="300" />
              <mxPoint x="470" y="300" />
            </Array>
          </mxGeometry>
        </mxCell>
        <mxCell id="tmr2yHB7oxTNzsD7l78u-252" style="edgeStyle=orthogonalEdgeStyle;rounded=0;orthogonalLoop=1;jettySize=auto;html=1;exitX=0.5;exitY=1;exitDx=0;exitDy=0;exitPerimeter=0;entryX=0.5;entryY=0;entryDx=0;entryDy=0;fillColor=#e51400;strokeColor=#B20000;" edge="1" parent="1" source="tmr2yHB7oxTNzsD7l78u-245" target="tmr2yHB7oxTNzsD7l78u-251">
          <mxGeometry relative="1" as="geometry" />
        </mxCell>
        <mxCell id="tmr2yHB7oxTNzsD7l78u-291" style="edgeStyle=orthogonalEdgeStyle;rounded=0;orthogonalLoop=1;jettySize=auto;html=1;exitX=0.855;exitY=1;exitDx=0;exitDy=-4.35;exitPerimeter=0;entryX=0.25;entryY=0;entryDx=0;entryDy=0;fillColor=#a0522d;strokeColor=#6D1F00;" edge="1" parent="1" source="tmr2yHB7oxTNzsD7l78u-245" target="tmr2yHB7oxTNzsD7l78u-283">
          <mxGeometry relative="1" as="geometry" />
        </mxCell>
        <mxCell id="tmr2yHB7oxTNzsD7l78u-245" value="Target Data" style="shape=cylinder3;whiteSpace=wrap;html=1;boundedLbl=1;backgroundOutline=1;size=15;fillColor=#f0a30a;fontColor=#000000;strokeColor=#BD7000;" vertex="1" parent="1">
          <mxGeometry x="310" y="90" width="90" height="90" as="geometry" />
        </mxCell>
        <mxCell id="tmr2yHB7oxTNzsD7l78u-262" style="edgeStyle=orthogonalEdgeStyle;rounded=0;orthogonalLoop=1;jettySize=auto;html=1;exitX=0.5;exitY=1;exitDx=0;exitDy=0;entryX=1;entryY=0.5;entryDx=0;entryDy=0;dashed=1;dashPattern=1 4;" edge="1" parent="1" source="tmr2yHB7oxTNzsD7l78u-246" target="tmr2yHB7oxTNzsD7l78u-261">
          <mxGeometry relative="1" as="geometry" />
        </mxCell>
        <mxCell id="tmr2yHB7oxTNzsD7l78u-246" value="&lt;div&gt;&lt;span style=&quot;background-color: transparent; color: light-dark(rgb(0, 0, 0), rgb(255, 255, 255));&quot;&gt;Class&lt;/span&gt;&lt;/div&gt;&lt;div&gt;&lt;span style=&quot;background-color: transparent; color: light-dark(rgb(0, 0, 0), rgb(255, 255, 255));&quot;&gt;Statistics&lt;/span&gt;&lt;/div&gt;" style="rounded=0;whiteSpace=wrap;html=1;aspect=fixed;fillColor=#b1ddf0;strokeColor=#10739e;" vertex="1" parent="1">
          <mxGeometry x="561" y="105" width="60" height="60" as="geometry" />
        </mxCell>
        <mxCell id="tmr2yHB7oxTNzsD7l78u-248" value="Data Preprocessing" style="rounded=1;whiteSpace=wrap;html=1;fillColor=#f5f5f5;fontColor=#333333;strokeColor=#666666;" vertex="1" parent="1">
          <mxGeometry x="295" y="240" width="260" height="30" as="geometry" />
        </mxCell>
        <mxCell id="tmr2yHB7oxTNzsD7l78u-258" style="edgeStyle=orthogonalEdgeStyle;rounded=0;orthogonalLoop=1;jettySize=auto;html=1;exitX=0;exitY=0.5;exitDx=0;exitDy=0;entryX=1;entryY=0.5;entryDx=0;entryDy=0;dashed=1;fillColor=#e51400;strokeColor=#B20000;" edge="1" parent="1" source="tmr2yHB7oxTNzsD7l78u-250" target="tmr2yHB7oxTNzsD7l78u-251">
          <mxGeometry relative="1" as="geometry" />
        </mxCell>
        <mxCell id="tmr2yHB7oxTNzsD7l78u-274" style="edgeStyle=orthogonalEdgeStyle;rounded=0;orthogonalLoop=1;jettySize=auto;html=1;exitX=0.5;exitY=1;exitDx=0;exitDy=0;entryX=0.5;entryY=0;entryDx=0;entryDy=0;" edge="1" parent="1" source="tmr2yHB7oxTNzsD7l78u-250" target="tmr2yHB7oxTNzsD7l78u-273">
          <mxGeometry relative="1" as="geometry" />
        </mxCell>
        <mxCell id="tmr2yHB7oxTNzsD7l78u-303" style="edgeStyle=orthogonalEdgeStyle;rounded=0;orthogonalLoop=1;jettySize=auto;html=1;exitX=0.25;exitY=1;exitDx=0;exitDy=0;entryX=0.5;entryY=0;entryDx=0;entryDy=0;" edge="1" parent="1" source="tmr2yHB7oxTNzsD7l78u-250" target="tmr2yHB7oxTNzsD7l78u-276">
          <mxGeometry relative="1" as="geometry">
            <Array as="points">
              <mxPoint x="470" y="400" />
              <mxPoint x="355" y="400" />
            </Array>
          </mxGeometry>
        </mxCell>
        <mxCell id="tmr2yHB7oxTNzsD7l78u-309" style="edgeStyle=orthogonalEdgeStyle;rounded=0;orthogonalLoop=1;jettySize=auto;html=1;exitX=1;exitY=0.5;exitDx=0;exitDy=0;entryX=0.5;entryY=0;entryDx=0;entryDy=0;fillColor=#b0e3e6;strokeColor=#0e8088;" edge="1" parent="1" source="tmr2yHB7oxTNzsD7l78u-250" target="tmr2yHB7oxTNzsD7l78u-295">
          <mxGeometry relative="1" as="geometry" />
        </mxCell>
        <mxCell id="tmr2yHB7oxTNzsD7l78u-250" value="Student Network" style="rounded=1;whiteSpace=wrap;html=1;fillColor=#d5e8d4;strokeColor=#82b366;" vertex="1" parent="1">
          <mxGeometry x="445" y="335" width="100" height="40" as="geometry" />
        </mxCell>
        <mxCell id="tmr2yHB7oxTNzsD7l78u-304" style="edgeStyle=orthogonalEdgeStyle;rounded=0;orthogonalLoop=1;jettySize=auto;html=1;exitX=0.5;exitY=1;exitDx=0;exitDy=0;entryX=0;entryY=0.5;entryDx=0;entryDy=0;fillColor=#e51400;strokeColor=#B20000;" edge="1" parent="1" source="tmr2yHB7oxTNzsD7l78u-251" target="tmr2yHB7oxTNzsD7l78u-265">
          <mxGeometry relative="1" as="geometry">
            <Array as="points">
              <mxPoint x="355" y="390" />
              <mxPoint x="305" y="390" />
              <mxPoint x="305" y="540" />
            </Array>
          </mxGeometry>
        </mxCell>
        <mxCell id="tmr2yHB7oxTNzsD7l78u-251" value="Teacher Network" style="rounded=1;whiteSpace=wrap;html=1;fillColor=#ffe6cc;strokeColor=#d79b00;" vertex="1" parent="1">
          <mxGeometry x="305" y="335" width="100" height="40" as="geometry" />
        </mxCell>
        <mxCell id="tmr2yHB7oxTNzsD7l78u-259" value="&lt;font style=&quot;color: rgb(178, 0, 0);&quot;&gt;EMA&lt;/font&gt;" style="text;html=1;align=center;verticalAlign=middle;resizable=0;points=[];autosize=1;strokeColor=none;fillColor=none;" vertex="1" parent="1">
          <mxGeometry x="400" y="327" width="50" height="30" as="geometry" />
        </mxCell>
        <mxCell id="tmr2yHB7oxTNzsD7l78u-261" value="Class-Balance&lt;div&gt;Sampling&lt;/div&gt;" style="rounded=1;whiteSpace=wrap;html=1;fillColor=#6d8764;fontColor=#ffffff;strokeColor=#3A5431;" vertex="1" parent="1">
          <mxGeometry x="450" y="190" width="90" height="32" as="geometry" />
        </mxCell>
        <mxCell id="tmr2yHB7oxTNzsD7l78u-265" value="&lt;div&gt;Pseudo&lt;/div&gt;&lt;div&gt;Label&lt;/div&gt;" style="rounded=0;whiteSpace=wrap;html=1;aspect=fixed;fillColor=#eeeeee;strokeColor=#36393d;" vertex="1" parent="1">
          <mxGeometry x="325" y="510" width="60" height="60" as="geometry" />
        </mxCell>
        <mxCell id="tmr2yHB7oxTNzsD7l78u-267" value="" style="group;rotation=90;" vertex="1" connectable="0" parent="1">
          <mxGeometry x="297" y="460" width="14" height="15" as="geometry" />
        </mxCell>
        <mxCell id="tmr2yHB7oxTNzsD7l78u-268" value="" style="endArrow=none;html=1;rounded=0;fillColor=#e51400;strokeColor=#B20000;" edge="1" parent="tmr2yHB7oxTNzsD7l78u-267">
          <mxGeometry width="50" height="50" relative="1" as="geometry">
            <mxPoint y="1" as="sourcePoint" />
            <mxPoint x="15" y="11" as="targetPoint" />
          </mxGeometry>
        </mxCell>
        <mxCell id="tmr2yHB7oxTNzsD7l78u-269" value="" style="endArrow=none;html=1;rounded=0;fillColor=#e51400;strokeColor=#B20000;" edge="1" parent="tmr2yHB7oxTNzsD7l78u-267">
          <mxGeometry width="50" height="50" relative="1" as="geometry">
            <mxPoint y="5" as="sourcePoint" />
            <mxPoint x="15" y="15" as="targetPoint" />
          </mxGeometry>
        </mxCell>
        <mxCell id="tmr2yHB7oxTNzsD7l78u-306" style="edgeStyle=orthogonalEdgeStyle;rounded=0;orthogonalLoop=1;jettySize=auto;html=1;exitX=0.5;exitY=1;exitDx=0;exitDy=0;entryX=0.5;entryY=0;entryDx=0;entryDy=0;startArrow=classic;startFill=1;fillColor=#647687;strokeColor=#314354;" edge="1" parent="1" source="tmr2yHB7oxTNzsD7l78u-273" target="tmr2yHB7oxTNzsD7l78u-280">
          <mxGeometry relative="1" as="geometry" />
        </mxCell>
        <mxCell id="tmr2yHB7oxTNzsD7l78u-273" value="&lt;div&gt;Source&lt;/div&gt;&lt;div&gt;Prediction&lt;/div&gt;" style="rounded=0;whiteSpace=wrap;html=1;aspect=fixed;labelBackgroundColor=default;fillStyle=solid;" vertex="1" parent="1">
          <mxGeometry x="465" y="420" width="60" height="60" as="geometry" />
        </mxCell>
        <mxCell id="tmr2yHB7oxTNzsD7l78u-305" style="edgeStyle=orthogonalEdgeStyle;rounded=0;orthogonalLoop=1;jettySize=auto;html=1;exitX=0.5;exitY=1;exitDx=0;exitDy=0;entryX=0.5;entryY=0;entryDx=0;entryDy=0;startArrow=classic;startFill=1;fillColor=#647687;strokeColor=#314354;" edge="1" parent="1" source="tmr2yHB7oxTNzsD7l78u-276" target="tmr2yHB7oxTNzsD7l78u-265">
          <mxGeometry relative="1" as="geometry" />
        </mxCell>
        <mxCell id="tmr2yHB7oxTNzsD7l78u-276" value="&lt;div&gt;Target&lt;/div&gt;&lt;div&gt;Prediction&lt;/div&gt;" style="rounded=0;whiteSpace=wrap;html=1;aspect=fixed;labelBackgroundColor=default;fillStyle=solid;" vertex="1" parent="1">
          <mxGeometry x="325" y="420" width="60" height="60" as="geometry" />
        </mxCell>
        <mxCell id="tmr2yHB7oxTNzsD7l78u-280" value="&lt;div&gt;Label&lt;/div&gt;" style="rounded=0;whiteSpace=wrap;html=1;aspect=fixed;fillColor=#cdeb8b;strokeColor=#36393d;" vertex="1" parent="1">
          <mxGeometry x="465" y="510" width="60" height="60" as="geometry" />
        </mxCell>
        <mxCell id="tmr2yHB7oxTNzsD7l78u-283" value="ClassMix" style="rounded=1;whiteSpace=wrap;html=1;fillColor=#a0522d;strokeColor=#6D1F00;gradientDirection=west;fontColor=#ffffff;" vertex="1" parent="1">
          <mxGeometry x="390" y="285" width="70" height="30" as="geometry" />
        </mxCell>
        <mxCell id="tmr2yHB7oxTNzsD7l78u-295" value="&lt;div&gt;Domain&lt;/div&gt;Discriminator" style="rounded=1;whiteSpace=wrap;html=1;fillColor=#b0e3e6;strokeColor=#0e8088;" vertex="1" parent="1">
          <mxGeometry x="572.5" y="410" width="75" height="60" as="geometry" />
        </mxCell>
        <mxCell id="tmr2yHB7oxTNzsD7l78u-298" value="&lt;font style=&quot;font-size: 10px;&quot;&gt;GRL&lt;/font&gt;" style="rounded=1;whiteSpace=wrap;html=1;fillColor=#bac8d3;strokeColor=#23445d;verticalAlign=middle;" vertex="1" parent="1">
          <mxGeometry x="585" y="370" width="50" height="20" as="geometry" />
        </mxCell>
      </root>
    </mxGraphModel>
  </diagram>
</mxfile>
